<svg width="554" height="712" viewBox="0 0 554 712" fill="none" xmlns="http://www.w3.org/2000/svg">
<g clip-path="url(#clip0_311_384)">
<path d="M207.275 9.92117C180.698 33.5742 142.441 72.0295 123.837 93.7751C104.813 115.902 101.875 119.717 85.2296 142.683C75.9275 155.502 62.3591 177.095 53.7565 192.889C44.3145 210.133 38.4395 222.722 29.4172 244.773C27.1092 250.419 21.2342 268.655 18.2967 279.261C5.70749 324.43 -0.307373 373.491 0.601851 422.934C1.37119 464.67 6.61671 501.447 16.6182 535.095C32.1449 587.59 66.7653 639.55 105.652 668.697C135.657 691.282 176.572 703.795 207.415 699.98C230.635 697.08 245.393 690.137 256.793 676.861C271.76 659.388 272.04 639.092 257.632 619.178C250.428 609.335 239.798 603.155 227.138 601.476C223.781 601.019 218.256 600.332 214.759 599.874C173.704 594.533 137.335 571.338 116.353 537.079C103.274 515.715 95.5108 492.672 91.1745 462.229C89.3561 449.334 88.6567 413.473 89.8456 392.261C94.1819 314.13 112.786 236.38 148.456 147.109C162.863 111.019 190.7 51.8863 212.031 11.8287C215.179 5.87727 217.696 0.994056 217.557 0.994056C217.417 0.994056 212.801 5.03796 207.275 9.92117Z" fill="#0044EB"/>
<path d="M315.193 180.071C315.193 180.452 317.222 183.733 319.67 187.548C326.524 198.001 363.033 257.897 370.027 269.952C373.384 275.827 377.65 283.228 379.539 286.357C385.623 296.886 399.192 322.065 403.948 331.755C405.626 335.113 408.913 341.827 411.291 346.634C430.315 385.318 445.282 428.504 450.388 459.558C454.165 482.524 453.745 511.29 449.339 529.144C440.107 566.684 414.159 592.931 375.622 603.689C363.592 607.046 356.248 607.809 335.406 607.962C316.942 608.114 315.193 608.267 311.347 609.793C296.939 615.439 286.168 631.768 284.63 650.232C283.79 659.77 287.357 673.275 293.232 682.965C300.996 695.631 311.347 702.574 328.202 706.389C348.345 710.891 363.732 712.417 382.266 711.883C397.233 711.425 405.906 710.28 419.265 707.076C488.855 690.213 538.863 632.836 550.822 556.307C555.019 528.991 553.83 504.423 546.626 473.674C535.086 424.155 501.165 361.665 458.082 310.391C430.945 278.193 403.598 251.182 365.83 219.518C348.625 205.021 315.054 178.926 315.193 180.071Z" fill="#0044EB"/>
<path d="M282.252 278.879C282.252 279.032 283.791 282.618 285.679 286.814C287.567 290.935 289.805 296.505 290.715 299.099C292.323 303.601 292.533 303.906 294.701 303.906H296.939V308.026C296.939 310.315 296.59 312.299 296.24 312.451C295.541 312.68 296.45 316.419 298.268 321.073C299.247 323.744 303.164 342.132 304.283 349.686C305.822 360.215 306.381 380.511 305.402 390.125C303.584 407.292 298.688 420.187 290.505 429.648C280.783 440.788 272.53 445.595 256.094 450.021C242.456 453.607 230.286 458.108 222.453 462.305C213.641 467.035 206.716 472.3 206.716 474.208C206.716 475.047 206.157 475.581 205.458 475.581C203.849 475.581 200.422 479.396 200.422 481.151C200.422 481.838 199.932 482.448 199.373 482.448C198.044 482.448 194.547 489.086 192.588 495.419C191.26 499.463 191.05 501.981 191.05 509.153C191.12 526.855 197.414 543.412 209.094 556.993C212.102 560.503 212.871 561.037 215.179 561.037C217.697 561.037 217.907 561.19 217.907 563.25C217.907 565.234 218.466 565.768 224.201 568.972C232.594 573.779 241.617 575.916 250.429 575.305C258.892 574.695 267.145 573.474 271.411 572.101C284 568.209 290.365 565.844 295.68 563.174C301.276 560.351 301.765 559.893 301.975 557.68C302.185 555.467 302.395 555.315 304.983 555.086C309.669 554.781 310.927 554.247 310.927 552.644C310.927 551.5 311.417 551.118 312.676 551.118C313.655 551.118 315.054 550.508 315.753 549.745C316.523 549.058 318.901 546.922 320.999 545.014C323.167 543.183 324.915 541.276 324.915 540.741C324.915 540.284 325.545 539.673 326.384 539.444C327.154 539.215 327.993 538.3 328.203 537.461C328.413 536.545 328.832 535.858 329.182 535.858C329.811 535.858 334.008 531.128 334.008 530.365C334.008 530.059 334.777 528.915 335.756 527.77C339.183 523.726 346.527 510.908 350.304 502.286C355.619 490.154 359.886 476.268 362.264 463.22C368.768 427.893 364.921 395.084 350.514 363.496C346.807 355.332 339.883 342.59 337.225 338.927C336.386 337.859 335.267 336.181 334.707 335.189C332.259 331.145 316.173 311.383 310.088 305.05C300.366 294.673 282.252 277.735 282.252 278.879Z" fill="#12BF6F"/>
<path d="M208.639 471.575C204.05 475.156 200.883 478.864 197.624 484.165L203.109 484.167L207.327 478.464L208.639 471.575Z" fill="#12BF6F"/>
<path d="M290.199 297.42C292.637 304.855 294.749 310.621 297.055 317.399L299.733 310.097L296.25 302.074L290.199 297.42Z" fill="#12BF6F"/>
<path d="M300.436 560.56C316.351 552.386 326.855 541.07 337.154 525.995L320.484 525.995L306.142 541.17L300.436 560.56Z" fill="#12BF6F"/>
<path d="M209.426 557.413C212.982 561.608 216.393 564.533 221.287 567.216L220.714 561.743L215.374 558.146L209.426 557.413Z" fill="#12BF6F"/>
</g>
<defs>
<clipPath id="clip0_311_384">
<rect width="554" height="712" fill="white"/>
</clipPath>
</defs>
</svg>
